<svg width="71" height="66" viewBox="0 0 71 66" fill="none" xmlns="http://www.w3.org/2000/svg">
<path d="M38.4928 30.5596H41.5374C41.5374 26.383 37.3434 24.478 33.9258 24.0393V20.9904H30.8812V24.0393C27.4635 24.478 23.2695 26.383 23.2695 30.5596C23.2695 34.5434 27.3281 36.6147 30.8812 37.0814V44.3982C28.6768 44.0287 26.3142 42.8907 26.3142 40.865H23.2695C23.2695 44.6765 26.9612 46.9289 30.8812 47.3956V50.4342H33.9258V47.3868C37.3434 46.9481 41.5374 45.0416 41.5374 40.865C41.5374 36.6884 37.3434 34.7833 33.9258 34.3446V27.0263C35.9505 27.3782 38.4928 28.4117 38.4928 30.5596V30.5596ZM26.3142 30.5596C26.3142 28.4117 28.8565 27.3782 30.8812 27.0263V34.0914C28.7941 33.7189 26.3142 32.6163 26.3142 30.5596ZM38.4928 40.865C38.4928 43.0129 35.9505 44.0464 33.9258 44.3982V37.3317C35.9505 37.6836 38.4928 38.717 38.4928 40.865V40.865Z" fill="black"/>
<path d="M70.9907 3.05604C71.068 2.50904 70.6869 2.00603 70.1397 1.93253L61.2219 0.734735C60.6747 0.661233 60.1685 1.04507 60.0913 1.59207C60.014 2.13906 60.3951 2.64207 60.9423 2.71558L68.8692 3.78028L67.7508 11.7036C67.6736 12.2506 68.0546 12.7537 68.6018 12.8272C69.1491 12.9007 69.6553 12.5168 69.7325 11.9698L70.9907 3.05604ZM49.1125 20.0116L70.6017 3.71739L69.3981 2.12851L47.909 18.4227L49.1125 20.0116Z" fill="#DF1414"/>
<path d="M44.3259 10.8013C38.4975 8.07813 31.8605 7.43818 25.5908 8.99489C19.3212 10.5516 13.8239 14.2044 10.073 19.3061C6.32207 24.4078 4.55979 30.6289 5.09842 36.867C5.63705 43.1051 8.44181 48.9573 13.0157 53.3868C17.5896 57.8162 23.6372 60.5368 30.087 61.0664C36.5367 61.596 42.9721 59.9004 48.2527 56.2801C53.5334 52.6598 57.3183 47.3486 58.9367 41.2877C60.5552 35.2267 59.9027 28.8073 57.0949 23.1671L53.3638 24.9042C55.7473 29.6921 56.3012 35.1414 54.9273 40.2864C53.5534 45.4314 50.3405 49.94 45.8579 53.0132C41.3752 56.0864 35.9124 57.5257 30.4373 57.0761C24.9622 56.6266 19.8285 54.3171 15.9458 50.5571C12.0632 46.797 9.68225 41.8291 9.22502 36.5337C8.76778 31.2384 10.2638 25.9574 13.4478 21.6267C16.6319 17.296 21.2985 14.1951 26.6206 12.8737C31.9428 11.5522 37.5768 12.0955 42.5244 14.4071L44.3259 10.8013Z" fill="#060606"/>
</svg>
