<svg width="34" height="34" viewBox="0 0 34 34" fill="none" xmlns="http://www.w3.org/2000/svg">
<path d="M29.7663 20.3334C28.6663 23.5334 26.033 26.2334 22.433 27.65L20.333 28.4834V30.3334H13.6663V28.4834L11.5497 27.65C7.94967 26.2334 5.31634 23.5334 4.21634 20.3334H29.7663ZM33.6663 0.333374L3.66634 3.65004V17H0.333008C0.333008 23.15 4.44967 28.4334 10.333 30.75V33.6667H23.6663V30.75C29.5497 28.4334 33.6663 23.15 33.6663 17H14.4997V10.3334H33.6663V7.83337H14.4997V4.96671L33.6663 2.85004V0.333374ZM10.333 7.83337V5.43337L11.9997 5.25004V7.83337H10.333ZM6.16634 7.83337V5.90004L7.83301 5.71671V7.83337H6.16634ZM10.333 17V10.3334H11.9997V17H10.333ZM6.16634 17V10.3334H7.83301V17H6.16634Z" fill="black"/>
</svg>
