<svg width="50" height="50" viewBox="0 0 50 50" fill="none" xmlns="http://www.w3.org/2000/svg">
<path d="M26.4464 11.1047H23.5627C23.2989 11.1047 23.083 11.314 23.083 11.5698V27.5756C23.083 27.7267 23.155 27.8663 23.2809 27.9535L33.191 34.9709C33.4069 35.1221 33.7066 35.0814 33.8625 34.8721L35.5771 32.6047C35.739 32.3895 35.6911 32.0988 35.4752 31.9535L26.926 25.9593V11.5698C26.926 11.314 26.7102 11.1047 26.4464 11.1047ZM39.6239 15.4767L49.0245 17.7035C49.3243 17.7733 49.618 17.5523 49.618 17.2558L49.666 7.86629C49.666 7.47675 49.2044 7.25582 48.8926 7.50001L39.4441 14.657C39.3727 14.7106 39.3183 14.7826 39.2872 14.8648C39.2562 14.947 39.2496 15.036 39.2684 15.1217C39.2872 15.2073 39.3305 15.2861 39.3934 15.3489C39.4563 15.4117 39.5362 15.456 39.6239 15.4767ZM49.678 32.9826L46.2787 31.8488C46.1601 31.8094 46.0304 31.8166 45.9173 31.8687C45.8041 31.9209 45.7165 32.0139 45.6731 32.1279C45.5592 32.4244 45.4393 32.7151 45.3134 33.0058C44.2463 35.4535 42.7175 37.657 40.763 39.5465C38.8303 41.4266 36.5398 42.9253 34.0184 43.9593C31.4064 45.0302 28.5987 45.5799 25.7629 45.5756C22.8972 45.5756 20.1214 45.0349 17.5075 43.9593C14.9861 42.9253 12.6956 41.4266 10.7628 39.5465C8.81435 37.657 7.28556 35.4535 6.21241 33.0058C5.11418 30.4714 4.55151 27.7491 4.55772 25C4.55772 22.2209 5.11528 19.5233 6.2244 16.9884C7.29156 14.5407 8.82035 12.3372 10.7748 10.4477C12.7075 8.56756 14.9981 7.06894 17.5195 6.03489C20.1214 4.95931 22.9032 4.41861 25.7689 4.41861C28.6346 4.41861 31.4104 4.95931 34.0244 6.03489C36.5457 7.06894 38.8363 8.56756 40.769 10.4477C41.3805 11.0465 41.9561 11.6686 42.4837 12.3256L46.0688 9.60466C41.3506 3.75582 34.0064 -0.00580722 25.7569 6.72988e-06C11.3923 0.00582068 -0.142554 11.3198 0.00133162 25.2558C0.145218 38.9477 11.6261 50 25.7689 50C36.8901 50 46.3626 43.1628 49.9717 33.5872C50.0617 33.343 49.9298 33.0698 49.678 32.9826Z" fill="#040404"/>
</svg>
