<svg width="71" height="65" viewBox="0 0 71 65" fill="none" xmlns="http://www.w3.org/2000/svg">
<path d="M37.5277 28.7639H40.4959C40.4959 24.5484 36.4072 22.6256 33.0753 22.1828V19.1055H30.1071V22.1828C26.7753 22.6256 22.6865 24.5484 22.6865 28.7639C22.6865 32.7848 26.6432 34.8755 30.1071 35.3465V42.7315C27.9581 42.3585 25.6548 41.2099 25.6548 39.1653H22.6865C22.6865 43.0123 26.2855 45.2858 30.1071 45.7568V48.8237H33.0753V45.7479C36.4072 45.3051 40.4959 43.3808 40.4959 39.1653C40.4959 34.9498 36.4072 33.027 33.0753 32.5842V25.1977C35.0492 25.5528 37.5277 26.596 37.5277 28.7639V28.7639ZM25.6548 28.7639C25.6548 26.596 28.1332 25.5528 30.1071 25.1977V32.3286C28.0724 31.9527 25.6548 30.8397 25.6548 28.7639ZM37.5277 39.1653C37.5277 41.3332 35.0492 42.3763 33.0753 42.7315V35.5991C35.0492 35.9542 37.5277 36.9973 37.5277 39.1653V39.1653Z" fill="black"/>
<path d="M42.4485 8.93184C36.8015 6.41706 30.4582 5.94049 24.4996 7.58332C18.5409 9.22615 13.3355 12.8867 9.77039 17.9414C6.20523 22.996 4.50087 29.1319 4.94771 35.3036C5.39455 41.4754 7.96494 47.3011 12.2209 51.7881C16.4769 56.2751 22.1551 59.1457 28.2881 59.911C34.4211 60.6763 40.6294 59.2887 45.8552 55.9849C51.0809 52.681 55.0008 47.6651 56.947 41.792C58.8931 35.9189 58.7451 29.5518 56.5281 23.7757L52.7597 25.2256C54.6417 30.1288 54.7674 35.5337 53.1153 40.5193C51.4633 45.5048 48.1358 49.7627 43.6997 52.5673C39.2637 55.3719 33.9936 56.5497 28.7874 55.9001C23.5812 55.2505 18.7611 52.8136 15.1482 49.0047C11.5354 45.1958 9.35348 40.2505 8.97416 35.0114C8.59485 29.7724 10.0416 24.5637 13.068 20.2729C16.0944 15.9821 20.5132 12.8747 25.5713 11.4802C30.6295 10.0856 36.0142 10.4902 40.8078 12.6249L42.4485 8.93184Z" fill="#060606"/>
<path d="M44.8369 19.1662C44.759 19.7133 45.1388 20.2199 45.6852 20.2978L54.5899 21.5667C55.1363 21.6446 55.6424 21.2642 55.7203 20.7171C55.7982 20.17 55.4184 19.6634 54.872 19.5855L46.9567 18.4576L48.0851 10.5327C48.163 9.98562 47.7832 9.47898 47.2367 9.40111C46.6903 9.32325 46.1842 9.70363 46.1063 10.2507L44.8369 19.1662ZM69.4001 0.338754L45.2264 18.507L46.4261 20.1073L70.5999 1.93908L69.4001 0.338754Z" fill="#149C53"/>
</svg>
