<svg width="41" height="42" viewBox="0 0 41 42" fill="none" xmlns="http://www.w3.org/2000/svg">
<path d="M24.0053 41.6667H16.4219C15.9468 41.6667 15.4859 41.5044 15.1157 41.2066C14.7455 40.9087 14.4882 40.4933 14.3865 40.0292L13.5386 36.1042C12.4075 35.6085 11.3349 34.9888 10.3407 34.2563L6.51358 35.475C6.06059 35.6195 5.57181 35.6046 5.12842 35.4329C4.68502 35.2613 4.31369 34.9431 4.07609 34.5313L0.276086 27.9667C0.0409717 27.5544 -0.0472843 27.0746 0.0257571 26.6057C0.0987985 26.1368 0.328812 25.7066 0.678169 25.3854L3.64692 22.6771C3.51191 21.4502 3.51191 20.2123 3.64692 18.9854L0.678169 16.2833C0.328318 15.962 0.0979909 15.5314 0.0249376 15.062C-0.0481157 14.5927 0.0404383 14.1124 0.276086 13.7L4.06775 7.13125C4.30536 6.71941 4.67669 6.40123 5.12009 6.22956C5.56348 6.05788 6.05226 6.04304 6.50525 6.1875L10.3323 7.40625C10.8407 7.03125 11.3698 6.68125 11.9157 6.36458C12.4428 6.06875 12.9844 5.8 13.5386 5.56042L14.3886 1.63958C14.4898 1.17541 14.7466 0.759766 15.1164 0.46156C15.4862 0.163354 15.9468 0.000499929 16.4219 0H24.0053C24.4803 0.000499929 24.941 0.163354 25.3108 0.46156C25.6806 0.759766 25.9374 1.17541 26.0386 1.63958L26.8969 5.5625C28.0274 6.05812 29.0993 6.6779 30.0928 7.41042L33.9219 6.19167C34.3746 6.04774 34.8629 6.06286 35.3059 6.2345C35.7488 6.40615 36.1198 6.72402 36.3573 7.13542L40.149 13.7042C40.6323 14.5521 40.4657 15.625 39.7469 16.2854L36.7782 18.9937C36.9132 20.2206 36.9132 21.4586 36.7782 22.6854L39.7469 25.3937C40.4657 26.0562 40.6323 27.1271 40.149 27.975L36.3573 34.5437C36.1197 34.9556 35.7484 35.2738 35.305 35.4454C34.8616 35.6171 34.3728 35.632 33.9198 35.4875L30.0928 34.2687C29.0993 35.0007 28.0274 35.6198 26.8969 36.1146L26.0386 40.0292C25.937 40.493 25.68 40.9081 25.3102 41.2059C24.9404 41.5037 24.48 41.6663 24.0053 41.6667ZM11.0886 29.6437L12.7969 30.8937C13.1823 31.1771 13.5823 31.4375 13.999 31.675C14.3907 31.9021 14.7907 32.1062 15.2053 32.2917L17.149 33.1437L18.1011 37.5H22.3303L23.2823 33.1417L25.2261 32.2896C26.074 31.9146 26.8803 31.45 27.6282 30.9021L29.3365 29.6521L33.5907 31.0062L35.7053 27.3437L32.4073 24.3375L32.6407 22.2292C32.7448 21.3062 32.7448 20.375 32.6407 19.4542L32.4073 17.3458L35.7073 14.3333L33.5907 10.6687L29.3386 12.0229L27.6282 10.7729C26.8798 10.2223 26.0745 9.75361 25.2261 9.375L23.2823 8.52292L22.3303 4.16667H18.1011L17.1428 8.525L15.2053 9.375C14.3556 9.7471 13.55 10.2125 12.8032 10.7625L11.0928 12.0125L6.84275 10.6583L4.724 14.3333L8.02192 17.3354L7.78858 19.4458C7.68442 20.3687 7.68442 21.3 7.78858 22.2208L8.02192 24.3292L4.724 27.3354L6.83859 30.9979L11.0886 29.6437V29.6437ZM20.2053 29.1667C17.9951 29.1667 15.8755 28.2887 14.3127 26.7259C12.7499 25.1631 11.8719 23.0435 11.8719 20.8333C11.8719 18.6232 12.7499 16.5036 14.3127 14.9408C15.8755 13.378 17.9951 12.5 20.2053 12.5C22.4154 12.5 24.535 13.378 26.0978 14.9408C27.6606 16.5036 28.5386 18.6232 28.5386 20.8333C28.5386 23.0435 27.6606 25.1631 26.0978 26.7259C24.535 28.2887 22.4154 29.1667 20.2053 29.1667ZM20.2053 16.6667C19.3893 16.6675 18.5916 16.9079 17.911 17.3579C17.2305 17.808 16.6971 18.448 16.3769 19.1985C16.0568 19.949 15.964 20.777 16.1102 21.5797C16.2564 22.3824 16.635 23.1246 17.1991 23.7141C17.7632 24.3036 18.488 24.7145 19.2835 24.8958C20.079 25.0771 20.9103 25.0209 21.6741 24.7341C22.438 24.4473 23.1008 23.9425 23.5804 23.2824C24.06 22.6223 24.3352 21.8359 24.3719 21.0208V21.8542V20.8333C24.3719 19.7283 23.9329 18.6685 23.1515 17.8871C22.3701 17.1057 21.3103 16.6667 20.2053 16.6667Z" fill="#E9E9E9"/>
</svg>
