<svg width="87" height="70" viewBox="0 0 87 70" fill="none" xmlns="http://www.w3.org/2000/svg">
<path d="M70 35C70 54.33 54.33 70 35 70C15.67 70 0 54.33 0 35C0 15.67 15.67 0 35 0C54.33 0 70 15.67 70 35ZM1.43119 35C1.43119 53.5395 16.4605 68.5688 35 68.5688C53.5395 68.5688 68.5688 53.5395 68.5688 35C68.5688 16.4605 53.5395 1.43119 35 1.43119C16.4605 1.43119 1.43119 16.4605 1.43119 35Z" fill="#EBEDF5"/>
<path d="M17 22.8687L19.9332 17.6229H78.7368V15L86 20.936L78.7368 25.9057V22.8687H42.1417L33.9008 56H28.0344L36.5547 22.8687H17Z" fill="#EBEDF5" stroke="#E5E6CE" stroke-opacity="0.31"/>
</svg>
